<mxfile host="app.diagrams.net" agent="Mozilla/5.0 (Windows NT 10.0; Win64; x64) AppleWebKit/537.36 (KHTML, like Gecko) Chrome/123.0.0.0 Safari/537.36 OPR/109.0.0.0" version="24.7.6">
  <diagram name="P치gina-1" id="jutUWLGbIv_IYarI5bel">
    <mxGraphModel dx="1009" dy="621" grid="1" gridSize="10" guides="1" tooltips="1" connect="1" arrows="1" fold="1" page="1" pageScale="1" pageWidth="827" pageHeight="1169" math="0" shadow="0">
      <root>
        <mxCell id="0" />
        <mxCell id="1" parent="0" />
        <mxCell id="Z57wDV19NYnMuvTXQx1a-1" value="SISTEMA DE TAREAS" style="shape=umlFrame;whiteSpace=wrap;html=1;pointerEvents=0;recursiveResize=0;container=1;collapsible=0;width=160;" vertex="1" parent="1">
          <mxGeometry x="240" y="220" width="760" height="550" as="geometry" />
        </mxCell>
        <mxCell id="Z57wDV19NYnMuvTXQx1a-2" value="Registrar Usuario" style="ellipse;html=1;whiteSpace=wrap;fillColor=#ffe6cc;strokeColor=#d79b00;" vertex="1" parent="Z57wDV19NYnMuvTXQx1a-1">
          <mxGeometry x="40" y="40" width="120" height="80" as="geometry" />
        </mxCell>
        <mxCell id="Z57wDV19NYnMuvTXQx1a-3" value="Iniciar Sesi칩n" style="ellipse;html=1;whiteSpace=wrap;fillColor=#ffe6cc;strokeColor=#d79b00;" vertex="1" parent="Z57wDV19NYnMuvTXQx1a-1">
          <mxGeometry x="40" y="160" width="120" height="80" as="geometry" />
        </mxCell>
        <mxCell id="Z57wDV19NYnMuvTXQx1a-4" value="&amp;lt;&amp;lt;include&amp;gt;&amp;gt;" style="html=1;verticalAlign=bottom;labelBackgroundColor=none;endArrow=open;endFill=0;dashed=1;rounded=0;exitX=0.5;exitY=0;exitDx=0;exitDy=0;entryX=0.5;entryY=1;entryDx=0;entryDy=0;" edge="1" parent="Z57wDV19NYnMuvTXQx1a-1" source="Z57wDV19NYnMuvTXQx1a-3" target="Z57wDV19NYnMuvTXQx1a-2">
          <mxGeometry x="-0.5" width="160" relative="1" as="geometry">
            <mxPoint x="80" y="230" as="sourcePoint" />
            <mxPoint x="240" y="230" as="targetPoint" />
            <mxPoint as="offset" />
          </mxGeometry>
        </mxCell>
        <mxCell id="Z57wDV19NYnMuvTXQx1a-5" value="Enviar Corre Cuenta" style="ellipse;html=1;whiteSpace=wrap;fillColor=#ffe6cc;strokeColor=#d79b00;" vertex="1" parent="Z57wDV19NYnMuvTXQx1a-1">
          <mxGeometry x="230" y="20" width="120" height="50" as="geometry" />
        </mxCell>
        <mxCell id="Z57wDV19NYnMuvTXQx1a-6" value="Crear Contrase침a" style="ellipse;html=1;whiteSpace=wrap;fillColor=#ffe6cc;strokeColor=#d79b00;" vertex="1" parent="Z57wDV19NYnMuvTXQx1a-1">
          <mxGeometry x="230" y="110" width="120" height="50" as="geometry" />
        </mxCell>
        <mxCell id="Z57wDV19NYnMuvTXQx1a-7" value="&amp;lt;&amp;lt;include&amp;gt;&amp;gt;" style="html=1;verticalAlign=bottom;labelBackgroundColor=none;endArrow=open;endFill=0;dashed=1;rounded=0;exitX=1;exitY=0.5;exitDx=0;exitDy=0;entryX=0;entryY=0.5;entryDx=0;entryDy=0;" edge="1" parent="Z57wDV19NYnMuvTXQx1a-1" source="Z57wDV19NYnMuvTXQx1a-2" target="Z57wDV19NYnMuvTXQx1a-5">
          <mxGeometry x="0.0286" y="-9" width="160" relative="1" as="geometry">
            <mxPoint x="190" y="80" as="sourcePoint" />
            <mxPoint x="190" y="40" as="targetPoint" />
            <mxPoint as="offset" />
          </mxGeometry>
        </mxCell>
        <mxCell id="Z57wDV19NYnMuvTXQx1a-8" value="&amp;lt;&amp;lt;include&amp;gt;&amp;gt;" style="html=1;verticalAlign=bottom;labelBackgroundColor=none;endArrow=open;endFill=0;dashed=1;rounded=0;exitX=0.5;exitY=0;exitDx=0;exitDy=0;entryX=0.5;entryY=1;entryDx=0;entryDy=0;" edge="1" parent="Z57wDV19NYnMuvTXQx1a-1">
          <mxGeometry x="-0.5" width="160" relative="1" as="geometry">
            <mxPoint x="289.5" y="110" as="sourcePoint" />
            <mxPoint x="289.5" y="70" as="targetPoint" />
            <mxPoint as="offset" />
          </mxGeometry>
        </mxCell>
        <mxCell id="Z57wDV19NYnMuvTXQx1a-9" value="&amp;lt;&amp;lt;include&amp;gt;&amp;gt;" style="html=1;verticalAlign=bottom;labelBackgroundColor=none;endArrow=open;endFill=0;dashed=1;rounded=0;exitX=1;exitY=0;exitDx=0;exitDy=0;entryX=0;entryY=0.5;entryDx=0;entryDy=0;" edge="1" parent="Z57wDV19NYnMuvTXQx1a-1" source="Z57wDV19NYnMuvTXQx1a-3" target="Z57wDV19NYnMuvTXQx1a-6">
          <mxGeometry x="-0.5" width="160" relative="1" as="geometry">
            <mxPoint x="130" y="190" as="sourcePoint" />
            <mxPoint x="130" y="150" as="targetPoint" />
            <mxPoint as="offset" />
          </mxGeometry>
        </mxCell>
        <mxCell id="Z57wDV19NYnMuvTXQx1a-10" value="Actualizar Contrase침a" style="ellipse;html=1;whiteSpace=wrap;fillColor=#d5e8d4;strokeColor=#82b366;" vertex="1" parent="Z57wDV19NYnMuvTXQx1a-1">
          <mxGeometry x="230" y="190" width="120" height="50" as="geometry" />
        </mxCell>
        <mxCell id="Z57wDV19NYnMuvTXQx1a-11" value="&amp;lt;&amp;lt;extend&amp;gt;&amp;gt;" style="html=1;verticalAlign=bottom;labelBackgroundColor=none;endArrow=open;endFill=0;dashed=1;rounded=0;exitX=1;exitY=0.5;exitDx=0;exitDy=0;entryX=0;entryY=0.5;entryDx=0;entryDy=0;" edge="1" parent="Z57wDV19NYnMuvTXQx1a-1" source="Z57wDV19NYnMuvTXQx1a-3" target="Z57wDV19NYnMuvTXQx1a-10">
          <mxGeometry width="160" relative="1" as="geometry">
            <mxPoint x="80" y="230" as="sourcePoint" />
            <mxPoint x="240" y="230" as="targetPoint" />
          </mxGeometry>
        </mxCell>
        <mxCell id="Z57wDV19NYnMuvTXQx1a-25" value="Crear Tareas" style="ellipse;html=1;whiteSpace=wrap;fillColor=#d5e8d4;strokeColor=#82b366;" vertex="1" parent="Z57wDV19NYnMuvTXQx1a-1">
          <mxGeometry x="100" y="315" width="120" height="50" as="geometry" />
        </mxCell>
        <mxCell id="Z57wDV19NYnMuvTXQx1a-26" value="&amp;lt;&amp;lt;extend&amp;gt;&amp;gt;" style="html=1;verticalAlign=bottom;labelBackgroundColor=none;endArrow=open;endFill=0;dashed=1;rounded=0;exitX=0.5;exitY=1;exitDx=0;exitDy=0;entryX=0.5;entryY=0;entryDx=0;entryDy=0;" edge="1" parent="Z57wDV19NYnMuvTXQx1a-1" source="Z57wDV19NYnMuvTXQx1a-3" target="Z57wDV19NYnMuvTXQx1a-25">
          <mxGeometry width="160" relative="1" as="geometry">
            <mxPoint x="170" y="210" as="sourcePoint" />
            <mxPoint x="240" y="225" as="targetPoint" />
          </mxGeometry>
        </mxCell>
        <mxCell id="Z57wDV19NYnMuvTXQx1a-41" value="Actualizar Tarea" style="ellipse;html=1;whiteSpace=wrap;fillColor=#d5e8d4;strokeColor=#82b366;" vertex="1" parent="Z57wDV19NYnMuvTXQx1a-1">
          <mxGeometry x="450" y="320" width="120" height="50" as="geometry" />
        </mxCell>
        <mxCell id="Z57wDV19NYnMuvTXQx1a-42" value="&amp;lt;&amp;lt;extend&lt;span style=&quot;background-color: initial;&quot;&gt;&amp;gt;&amp;gt;&lt;/span&gt;" style="html=1;verticalAlign=bottom;labelBackgroundColor=none;endArrow=open;endFill=0;dashed=1;rounded=0;exitX=1;exitY=0.5;exitDx=0;exitDy=0;entryX=0;entryY=0.5;entryDx=0;entryDy=0;" edge="1" parent="Z57wDV19NYnMuvTXQx1a-1" source="Z57wDV19NYnMuvTXQx1a-25" target="Z57wDV19NYnMuvTXQx1a-41">
          <mxGeometry x="-0.5" width="160" relative="1" as="geometry">
            <mxPoint x="212" y="332" as="sourcePoint" />
            <mxPoint x="280" y="300" as="targetPoint" />
            <mxPoint as="offset" />
          </mxGeometry>
        </mxCell>
        <mxCell id="Z57wDV19NYnMuvTXQx1a-12" style="rounded=0;orthogonalLoop=1;jettySize=auto;html=1;" edge="1" parent="1" source="Z57wDV19NYnMuvTXQx1a-13" target="Z57wDV19NYnMuvTXQx1a-2">
          <mxGeometry relative="1" as="geometry" />
        </mxCell>
        <mxCell id="Z57wDV19NYnMuvTXQx1a-13" value="Usuarios (Profesionales, Estudiantes)" style="shape=umlActor;verticalLabelPosition=bottom;verticalAlign=top;html=1;" vertex="1" parent="1">
          <mxGeometry x="120" y="310" width="30" height="60" as="geometry" />
        </mxCell>
        <mxCell id="Z57wDV19NYnMuvTXQx1a-17" value="Base de datos MySQL" style="shape=datastore;whiteSpace=wrap;html=1;fillColor=#e1d5e7;strokeColor=#9673a6;" vertex="1" parent="1">
          <mxGeometry x="112.5" y="530" width="65" height="65" as="geometry" />
        </mxCell>
        <mxCell id="Z57wDV19NYnMuvTXQx1a-20" value="Equipos de Trabajo&lt;div&gt;&lt;br&gt;&lt;/div&gt;" style="shape=umlActor;verticalLabelPosition=bottom;verticalAlign=top;html=1;" vertex="1" parent="1">
          <mxGeometry x="120" y="400" width="30" height="60" as="geometry" />
        </mxCell>
        <mxCell id="Z57wDV19NYnMuvTXQx1a-21" style="rounded=0;orthogonalLoop=1;jettySize=auto;html=1;exitX=1;exitY=0.3333333333333333;exitDx=0;exitDy=0;exitPerimeter=0;entryX=0;entryY=1;entryDx=0;entryDy=0;" edge="1" parent="1" source="Z57wDV19NYnMuvTXQx1a-20" target="Z57wDV19NYnMuvTXQx1a-2">
          <mxGeometry relative="1" as="geometry">
            <mxPoint x="160" y="436.5" as="sourcePoint" />
            <mxPoint x="291" y="423.5" as="targetPoint" />
          </mxGeometry>
        </mxCell>
        <mxCell id="Z57wDV19NYnMuvTXQx1a-22" style="rounded=0;orthogonalLoop=1;jettySize=auto;html=1;entryX=-0.001;entryY=0.707;entryDx=0;entryDy=0;entryPerimeter=0;startArrow=classic;startFill=1;" edge="1" parent="1" source="Z57wDV19NYnMuvTXQx1a-17" target="Z57wDV19NYnMuvTXQx1a-1">
          <mxGeometry relative="1" as="geometry" />
        </mxCell>
        <mxCell id="Z57wDV19NYnMuvTXQx1a-24" style="rounded=0;orthogonalLoop=1;jettySize=auto;html=1;entryX=0;entryY=0;entryDx=0;entryDy=0;" edge="1" parent="1" source="Z57wDV19NYnMuvTXQx1a-23" target="Z57wDV19NYnMuvTXQx1a-2">
          <mxGeometry relative="1" as="geometry" />
        </mxCell>
        <mxCell id="Z57wDV19NYnMuvTXQx1a-23" value="&lt;div&gt;Administrador&lt;/div&gt;&lt;div&gt;&lt;br&gt;&lt;/div&gt;" style="shape=umlActor;verticalLabelPosition=bottom;verticalAlign=top;html=1;" vertex="1" parent="1">
          <mxGeometry x="120" y="220" width="30" height="60" as="geometry" />
        </mxCell>
      </root>
    </mxGraphModel>
  </diagram>
</mxfile>
